# AST/ASF file generated using VICON BodyLanguage
# -----------------------------------------------
:version 1.10
:name VICON
:units
  mass 1.0
  length 0.45
  angle deg
:documentation
   .ast/.asf automatically generated from VICON data using
   VICON BodyBuilder and BodyLanguage model FoxedUp or BRILLIANT.MOD
:root
   order TX TY TZ RX RY RZ
   axis XYZ
   position 0 0 0  
   orientation 0 -0 0 
:bonedata
  begin
     id 1 
     name lhipjoint
     direction 0.515797 -0.759363 0.396637 
     length 2.47888 
     axis 0 -0 0  XYZ
  end
  begin
     id 2 
     name lfemur
     direction 0.34202 -0.939693 0  
     length 6.81885  
     axis 0 -0 20  XYZ
    dof rx ry rz
    limits (-160.0 20.0)
           (-70.0 70.0)
           (-60.0 70.0)
  end
  begin
     id 3 
     name ltibia
     direction 0.342037 -0.939687 0   
     length 7.89258   
     axis 0 -0 20   XYZ
    dof rx
    limits (-10.0 170.0)
  end
  begin
     id 4 
     name lfoot
     direction 0.173497 -0.476678 0.861787   
     length 2.51543   
     axis -90 -1.13533e-015 20   XYZ
    dof rx rz
    limits (-45.0 90.0)
           (-70.0 20.0)
  end
  begin
     id 5 
     name ltoes
     direction 1.53564e-011 -4.21897e-011 1   
     length 1.21388   
     axis -90 -1.13533e-015 20   XYZ
    dof rx
    limits (-90.0 20.0)
  end
  begin
     id 6 
     name rhipjoint
     direction -0.489454 -0.772941 0.403729   
     length 2.43534  
     axis 0 -0 0  XYZ 
  end
  begin
     id 7 
     name rfemur
     direction -0.34202 -0.939693 0   
     length 7.10357   
     axis 0 -0 -20   XYZ
    dof rx ry rz
    limits (-160.0 20.0)
           (-70.0 70.0)
           (-70.0 60.0)
  end
  begin
     id 8 
     name rtibia
     direction -0.34202 -0.939693 0   
     length 9.16127   
     axis 0 -0 -20   XYZ
    dof rx
    limits (-10.0 170.0)
 end
 begin
     id 9 
     name rfoot
     direction -0.270974 -0.748671 0.605033   
     length 1.74894  
     axis -90 1.13533e-015 -20   XYZ
    dof rx rz
    limits (-45.0 90.0)
           (-20.0 70.0)
  end
  begin
     id 10 
     name rtoes
     direction -1.53557e-011 -4.21759e-011 1   
     length 0.787585   
     axis -90 1.13533e-015 -20   XYZ
    dof rx
    limits (-90.0 20.0)
  end
  begin
     id 11 
     name lowerback
     direction -0.0140249 0.999561 0.0260968   
     length 2.16963   
     axis 0 -0 0   XYZ
    dof rx ry rz
    limits (-20.0 45.0)
           (-30.0 30.0)
           (-30.0 30.0)
  end
  begin
     id 12 
     name upperback
     direction 0.00860018 0.999959 -0.002711   
     length 2.1726   
     axis 0 -0 0   XYZ
    dof rx ry rz
    limits (-20.0 45.0)
           (-30.0 30.0)
           (-30.0 30.0)
  end
  begin
     id 13 
     name thorax
     direction 0.015211 0.999782 -0.0143191   
     length 2.17061   
     axis 0 -0 0   XYZ
    dof rx ry rz
    limits (-20.0 45.0)
           (-30.0 30.0)
           (-30.0 30.0)
  end
  begin
     id 14 
     name lowerneck
     direction -0.0140143 0.999447 0.030145   
     length 2.26749   
     axis 0 -0 0   XYZ
    dof rx ry rz
    limits (-20.0 45.0)
           (-30.0 30.0)
           (-30.0 30.0)
  end
  begin
     id 15 
     name upperneck
     direction 0.118062 0.961438 -0.248392   
     length 2.22728   
     axis 0 -0 0   XYZ
    dof rx ry rz
    limits (-20.0 45.0)
           (-30.0 30.0)
           (-30.0 30.0)
  end
  begin
     id 16
     name head
     direction 0.0431885 0.9954 -0.085514  
     length 2.28786  
     axis 0 -0 0   XYZ
    dof rx ry rz
    limits (-20.0 45.0)
           (-30.0 30.0)
           (-30.0 30.0)
  end
  begin
     id 17 
     name lclavicle
     direction 0.912126 0.409548 0.0172323  
     length 4.31571  
     axis 0 -0 0   XYZ
    dof ry rz
    limits (-20.0 10.0)
           (0.0 20.0)
  end
  begin
     id 18 
     name lhumerus
     direction 1 -4.48977e-011 1.93091e-027   
     length 5.13658   
     axis 180 -30 -90   XYZ
    dof rx ry rz
    limits (-60.0 90.0)
           (-90.0 90.0)
           (-90.0 90.0)
  end
  begin
     id 19
     name lradius
     direction 1 -4.48916e-011 6.84018e-027   
     length 3.22473   
     axis 180 -30 -90   XYZ
    dof rx
    limits (-10.0 170.0)
  end
  begin
     id 20
     name lwrist
     direction 1 -4.48987e-011 7.01981e-027   
     length 1.61236   
     axis -4.37994e-015 90 90   XYZ
    dof ry
    limits (-180.0 0.0)
 end
  begin
     id 21 
     name lhand
     direction 1 -4.49037e-011 1.40335e-026   
     length 0.936406   
     axis -8.96029e-015 90 90   XYZ
    dof rx rz
    limits (-90.0 90.0)
           (-45.0 45.0)
  end
  begin
     id 22 
     name lfingers
     direction 1 -4.48886e-011 2.8104e-026   
     length 0.754955   
     axis -1.79203e-014 90 90   XYZ
    dof rx
    limits (0.0 90.0)
  end
  begin
     id 23
     name lthumb
     direction 0.707107 -6.34937e-011 0.707107   
     length 1.08397   
     axis -90 45 -4.48555e-014   XYZ
    dof rx rz
    limits (-45.0 45.0)
           (-45.0 45.0)
  end
  begin
     id 24 
     name rclavicle
     direction -0.947962 0.317997 0.0156638   
     length 4.86918  
     axis 0 -0 0   XYZ 
    dof ry rz
    limits (-10.0 20.0)
           (-20.0 0.0)
  end
  begin
     id 25 
     name rhumerus
     direction -1 -4.48951e-011 2.80534e-018  
     length 5.60911   
     axis 180 30 90   XYZ
    dof rx ry rz
    limits (-90.0 60.0)
           (-90.0 90.0)
           (-90.0 90.0)
  end
  begin
     id 26 
     name rradius
     direction -1 -4.4898e-011 2.11315e-027   
     length 3.38704   
     axis 180 30 90   XYZ
    dof rx
    limits (-10.0 170.0)
  end
  begin
     id 27 
     name rwrist
     direction -1 -4.48933e-011 7.02314e-027   
     length 1.69352   
     axis -4.37994e-015 -90 -90   XYZ
    dof ry
    limits (-180.0 0.0)
  end
  begin
     id 28
     name rhand
     direction -1 -4.48937e-011 1.40458e-026   
     length 0.755878   
     axis -8.96029e-015 -90 -90   XYZ
    dof rx rz
    limits (-90.0 90.0)
           (-45.0 45.0)
  end
  begin
     id 29
     name rfingers
     direction -1 -4.4901e-011 2.80737e-026   
     length 0.609409   
     axis -1.79203e-014 -90 -90   XYZ
    dof rx
    limits (0.0 90.0)
  end
  begin
     id 30
     name rthumb
     direction -0.707107 -6.34968e-011 0.707107   
     length 0.874992   
     axis -90 -45 4.48555e-014   XYZ
    dof rx rz
    limits (-45.0 45.0)
           (-45.0 45.0)
  end
:hierarchy
  begin
    root lhipjoint rhipjoint lowerback
    lhipjoint lfemur
    lfemur ltibia
    ltibia lfoot
    lfoot ltoes
    rhipjoint rfemur
    rfemur rtibia
    rtibia rfoot
    rfoot rtoes
    lowerback upperback
    upperback thorax
    thorax lowerneck lclavicle rclavicle
    lowerneck upperneck
    upperneck head
    lclavicle lhumerus
    lhumerus lradius
    lradius lwrist
    lwrist lhand lthumb
    lhand lfingers
    rclavicle rhumerus
    rhumerus rradius
    rradius rwrist
    rwrist rhand rthumb
    rhand rfingers
  end

#!OML:ASF C:\ViconDB\ViconDB\414\Spring2016\041811\Spring2016.ASF
:FULLY-SPECIFIED
:DEGREES
46
root 12.6058 18.0484 9.72031 -173.082 -5.80722 -178.76
lowerback -7.47429 1.20683 -2.71355
upperback 0.245717 1.81925 0.253248
thorax 4.35513 0.830616 1.98749
lowerneck -12.1183 1.97231 -5.56903
upperneck 23.7216 -0.355122 12.4192
head 9.43853 0.181075 5.18012
rclavicle 1.41137e-014 -1.86858e-014
rhumerus -84.0044 30.7206 -115.242
rradius 86.2224
rwrist 30.9463
rhand -47.901 -0.819849
rfingers 7.12502
rthumb -20.5733 -29.7497
lclavicle 1.41137e-014 -1.86858e-014
lhumerus -85.0068 -43.4308 119.909
lradius 75.5251
lwrist -28.674
lhand -46.3455 -2.21471
lfingers 7.12502
lthumb -19.078 26.8696
rfemur 165.997 46.7853 -174.734
rtibia 26.3909
rfoot -40.5766 -47.0124
rtoes -20.4963
lfemur -9.00752 -9.37261 -15.3256
ltibia 26.7664
lfoot -26.011 2.96919
ltoes -12.0297
47
root 12.5706 18.042 9.7143 -173.108 -5.96128 -178.753
lowerback -7.36849 1.18292 -2.65163
upperback 0.215224 1.77811 0.256945
thorax 4.26769 0.81335 1.94863
lowerneck -12.0599 1.96167 -5.72276
upperneck 23.6811 -0.370348 12.5608
head 9.4128 0.171948 5.25346
rclavicle -1.85118e-014 1.55052e-014
rhumerus -84.1443 30.7773 -115.312
rradius 86.2979
rwrist 30.922
rhand -47.8578 -0.738275
rfingers 7.12502
rthumb -20.5318 -29.6726
lclavicle -1.85118e-014 1.55052e-014
lhumerus -85.0345 -43.3757 119.945
lradius 75.56
lwrist -28.5045
lhand -46.2598 -2.26828
lfingers 7.12502
lthumb -18.9955 26.8242
rfemur 165.834 46.1378 -175.056
rtibia 26.2434
rfoot -39.4112 -47.2731
rtoes -19.526
lfemur -9.06333 -9.36945 -15.4312
ltibia 26.9224
lfoot -26.0676 2.81285
ltoes -12.136
48
root 12.537 18.0376 9.71105 -173.044 -6.05448 -178.919
lowerback -7.31221 1.17624 -2.81114
upperback 0.179634 1.78267 0.187442
thorax 4.19624 0.814015 1.96438
lowerneck -12.0404 1.92385 -5.49695
upperneck 23.6618 -0.421634 12.3639
head 9.41073 0.148766 5.13628
rclavicle 1.86361e-014 -7.35503e-015
rhumerus -84.1854 30.7719 -115.402
rradius 86.3383
rwrist 30.9264
rhand -47.9315 -0.94892
rfingers 7.12502
rthumb -20.6026 -29.8756
lclavicle 1.86361e-014 -7.35503e-015
lhumerus -85.0059 -43.3765 119.852
lradius 75.4887
lwrist -28.4452
lhand -46.0547 -2.60032
lfingers 7.12502
lthumb -18.7983 26.5113
rfemur 165.823 44.9268 -175.45
rtibia 26.0986
rfoot -37.3534 -47.5722
rtoes -18.0496
lfemur -9.28695 -9.04432 -15.7343
ltibia 27.0862
lfoot -25.9598 2.67423
ltoes -12.5995
49
root 12.5002 18.0314 9.70326 -173.134 -6.1029 -178.89
lowerback -7.21617 1.19365 -2.79606
upperback 0.211221 1.80113 0.248153
thorax 4.17261 0.823699 2.01866
lowerneck -12.092 1.887 -5.76678
upperneck 23.6636 -0.464392 12.5802
head 9.42313 0.128717 5.25853
rclavicle -1.41013e-014 5.96354e-015
rhumerus -84.2367 30.8058 -115.35
rradius 86.3079
rwrist 31.1147
rhand -47.9626 -1.00578
rfingers 7.12502
rthumb -20.6325 -29.9292
lclavicle -1.41013e-014 5.96354e-015
lhumerus -85.0286 -43.361 119.988
lradius 75.4961
lwrist -28.5895
lhand -46.1666 -2.01613
lfingers 7.12502
lthumb -18.9059 27.0851
rfemur 165.611 43.817 -175.773
rtibia 25.9644
rfoot -35.5658 -47.8057
rtoes -16.2502
lfemur -9.17446 -9.226 -15.8307
ltibia 27.2404
lfoot -26.1711 2.52858
ltoes -11.975
50
root 12.4622 18.025 9.69856 -173.158 -6.26888 -178.957
lowerback -7.13827 1.17791 -2.81625
upperback 0.22631 1.78191 0.208952
thorax 4.14618 0.814694 1.98547
lowerneck -12.108 1.83022 -5.65745
upperneck 23.6229 -0.535936 12.4862
head 9.42133 0.0981348 5.19667
rclavicle -2.04997e-014 5.96354e-016
rhumerus -84.1717 30.7956 -115.374
rradius 86.3495
rwrist 31.1431
rhand -48.1825 -1.12719
rfingers 7.12502
rthumb -20.8437 -30.0275
lclavicle -2.04997e-014 5.96354e-016
lhumerus -84.8909 -43.3797 119.844
lradius 75.3269
lwrist -28.609
lhand -46.1933 -2.51554
lfingers 7.12502
lthumb -18.9316 26.5832
rfemur 165.426 42.66 -176.144
rtibia 25.9
rfoot -33.5293 -48.123
rtoes -14.9097
lfemur -9.19395 -9.34876 -16.0319
ltibia 27.3618
lfoot -26.2989 2.44608
ltoes -11.8614
51
root 12.423 18.017 9.69279 -173.309 -6.35226 -178.912
lowerback -6.91615 1.19491 -2.75427
upperback 0.24889 1.79277 0.258882
thorax 4.04434 0.823333 1.99772
lowerneck -12.0799 1.79301 -5.79763
upperneck 23.5641 -0.558522 12.5433
head 9.39665 0.0824392 5.23683
rclavicle 2.38542e-015 4.37326e-015
rhumerus -84.1313 30.7635 -115.285
rradius 86.2232
rwrist 31.2891
rhand -48.1551 -0.696514
rfingers 7.12502
rthumb -20.8174 -29.5997
lclavicle 2.38542e-015 4.37326e-015
lhumerus -84.9774 -43.3539 120.017
lradius 75.3236
lwrist -28.5231
lhand -46.2433 -2.24215
lfingers 7.12502
lthumb -18.9797 26.8518
rfemur 165.108 41.4039 -176.472
rtibia 25.8712
rfoot -31.5907 -48.2888
rtoes -13.517
lfemur -9.06612 -9.27958 -16.1292
ltibia 27.461
lfoot -26.3723 2.2366
ltoes -11.8725
52
root 12.3777 18.0085 9.69477 -173.2 -6.50871 -179.308
lowerback -6.8576 1.12537 -3.17167
upperback 0.21845 1.73328 0.184702
thorax 3.97335 0.786952 2.14711
lowerneck -12.0552 1.76885 -5.66894
upperneck 23.5089 -0.573488 12.4003
head 9.3757 0.0743918 5.15863
rclavicle 1.86609e-014 -2.20651e-014
rhumerus -84.1722 30.8584 -115.296
rradius 86.3305
rwrist 31.3907
rhand -48.1148 -0.993405
rfingers 7.12502
rthumb -20.7787 -29.9009
lclavicle 1.86609e-014 -2.20651e-014
lhumerus -84.9047 -43.2768 119.991
lradius 75.1936
lwrist -28.7244
lhand -46.3811 -2.21497
lfingers 7.12502
lthumb -19.1122 26.866
rfemur 164.985 40.411 -177.157
rtibia 25.945
rfoot -29.6875 -48.7263
rtoes -12.8576
lfemur -9.23155 -9.27955 -16.7086
ltibia 27.6037
lfoot -26.355 2.02624
ltoes -12.0027
53
root 12.3301 18.0015 9.69015 -173.245 -6.69418 -179.429
lowerback -6.72627 1.12808 -3.15432
upperback 0.218519 1.7331 0.134933
thorax 3.90157 0.789191 2.08224
lowerneck -11.9418 1.68703 -5.64676
upperneck 23.3949 -0.664245 12.3359
head 9.32439 0.0259023 5.11521
rclavicle -2.42269e-015 -4.96962e-015
rhumerus -84.1101 30.7376 -115.197
rradius 86.3183
rwrist 31.4886
rhand -48.3673 -1.23014
rfingers 7.12502
rthumb -21.0213 -30.1108
lclavicle -2.42269e-015 -4.96962e-015
lhumerus -85.0185 -43.3558 120.202
lradius 75.084
lwrist -28.7647
lhand -46.3324 -1.97746
lfingers 7.12502
lthumb -19.0654 27.1081
rfemur 164.714 39.027 -177.604
rtibia 26.0317
rfoot -27.3892 -49.0092
rtoes -11.5583
lfemur -9.24531 -9.46592 -17.0085
ltibia 27.7554
lfoot -26.4297 1.92282
ltoes -11.6364
